<svg width="51" height="50" viewBox="0 0 51 50" fill="none" xmlns="http://www.w3.org/2000/svg">
<g id="Bulb" clip-path="url(#clip0_803_68336)">
<path id="Vector" d="M32.1953 45.9821H18.8025C18.5569 45.9821 18.356 46.183 18.356 46.4286V48.2143C18.356 49.202 19.154 50 20.1417 50H30.856C31.8438 50 32.6417 49.202 32.6417 48.2143V46.4286C32.6417 46.183 32.4408 45.9821 32.1953 45.9821ZM25.4989 0C15.3929 0 7.19531 8.19754 7.19531 18.3036C7.19531 25.0781 10.8783 30.9933 16.3471 34.1574V40.625C16.3471 41.6127 17.1451 42.4107 18.1328 42.4107H32.865C33.8527 42.4107 34.6507 41.6127 34.6507 40.625V34.1574C40.1194 30.9933 43.8025 25.0781 43.8025 18.3036C43.8025 8.19754 35.6049 0 25.4989 0ZM32.6362 30.6808L30.6328 31.8415V38.3929H20.365V31.8415L18.3616 30.6808C13.9699 28.1417 11.2132 23.4654 11.2132 18.3036C11.2132 10.4129 17.6083 4.01786 25.4989 4.01786C33.3895 4.01786 39.7846 10.4129 39.7846 18.3036C39.7846 23.4654 37.0279 28.1417 32.6362 30.6808Z" fill="#1890FF"/>
</g>
<defs>
<clipPath id="clip0_803_68336">
<rect width="50" height="50" fill="white" transform="translate(0.5)"/>
</clipPath>
</defs>
</svg>
