<svg width="18" height="18" viewBox="0 0 18 18" fill="none" xmlns="http://www.w3.org/2000/svg">
<path d="M12.0478 6.22018C12.0478 6.14284 11.9845 6.07956 11.9072 6.07956L10.747 6.08483L8.99975 8.16784L7.25424 6.08659L6.09233 6.08132C6.01499 6.08132 5.95171 6.14284 5.95171 6.22194C5.95171 6.25534 5.96401 6.28698 5.9851 6.31335L8.27202 9.03796L5.9851 11.7608C5.96386 11.7866 5.95208 11.8188 5.95171 11.8522C5.95171 11.9296 6.01499 11.9928 6.09233 11.9928L7.25424 11.9876L8.99975 9.90456L10.7453 11.9858L11.9054 11.9911C11.9828 11.9911 12.046 11.9296 12.046 11.8505C12.046 11.8171 12.0337 11.7854 12.0126 11.7591L9.72925 9.0362L12.0162 6.31159C12.0373 6.28698 12.0478 6.25358 12.0478 6.22018Z" fill="#8C8C8C"/>
<path d="M9 1.125C4.65117 1.125 1.125 4.65117 1.125 9C1.125 13.3488 4.65117 16.875 9 16.875C13.3488 16.875 16.875 13.3488 16.875 9C16.875 4.65117 13.3488 1.125 9 1.125ZM9 15.5391C5.38945 15.5391 2.46094 12.6105 2.46094 9C2.46094 5.38945 5.38945 2.46094 9 2.46094C12.6105 2.46094 15.5391 5.38945 15.5391 9C15.5391 12.6105 12.6105 15.5391 9 15.5391Z" fill="#8C8C8C"/>
</svg>
