<svg width="24" height="24" viewBox="0 0 24 24" fill="none" xmlns="http://www.w3.org/2000/svg">
<path d="M11.028 9.08388H12.9722V7.13971H11.028M12.0001 19.7768C7.71324 19.7768 4.22346 16.287 4.22346 12.0001C4.22346 7.71324 7.71324 4.22346 12.0001 4.22346C16.287 4.22346 19.7768 7.71324 19.7768 12.0001C19.7768 16.287 16.287 19.7768 12.0001 19.7768ZM12.0001 2.2793C10.7236 2.2793 9.45951 2.53073 8.28013 3.01925C7.10074 3.50777 6.02913 4.2238 5.12646 5.12646C3.30345 6.94947 2.2793 9.422 2.2793 12.0001C2.2793 14.5783 3.30345 17.0508 5.12646 18.8738C6.02913 19.7765 7.10074 20.4925 8.28013 20.981C9.45951 21.4695 10.7236 21.721 12.0001 21.721C14.5783 21.721 17.0508 20.6968 18.8738 18.8738C20.6968 17.0508 21.721 14.5783 21.721 12.0001C21.721 10.7236 21.4695 9.45951 20.981 8.28013C20.4925 7.10074 19.7765 6.02913 18.8738 5.12646C17.9711 4.2238 16.8995 3.50777 15.7201 3.01925C14.5407 2.53073 13.2767 2.2793 12.0001 2.2793ZM11.028 16.8605H12.9722V11.028H11.028V16.8605Z" fill="#1890FF"/>
</svg>
