<svg width="51" height="50" viewBox="0 0 51 50" fill="none" xmlns="http://www.w3.org/2000/svg">
<g id="Partition">
<path id="Vector" d="M32.6775 20.4164H47.0246C47.4654 20.4164 47.8225 20.0593 47.8225 19.6184V5.26576C47.8225 4.82492 47.4654 4.46777 47.0246 4.46777H32.6775C32.2366 4.46777 31.8795 4.82492 31.8795 5.26576V10.4499H24.3069C24.0893 10.4499 23.9107 10.6285 23.9107 10.8461V23.2066H19.1283V17.8216C19.1283 17.3807 18.7712 17.0236 18.3304 17.0236H3.97768C3.53683 17.0236 3.17969 17.3807 3.17969 17.8216V32.1742C3.17969 32.6151 3.53683 32.9722 3.97768 32.9722H18.3248C18.7656 32.9722 19.1228 32.6151 19.1228 32.1742V26.7892H23.9051V39.1497C23.9051 39.3673 24.0837 39.5459 24.3013 39.5459H31.8739V44.7301C31.8739 45.1709 32.231 45.528 32.6719 45.528H47.019C47.4598 45.528 47.817 45.1709 47.817 44.7301V30.3885C47.817 29.9477 47.4598 29.5905 47.019 29.5905H32.6775C32.2366 29.5905 31.8795 29.9477 31.8795 30.3885V35.9689H27.4933V14.0381H31.8795V19.6184C31.8795 20.0593 32.2366 20.4164 32.6775 20.4164ZM35.6629 8.25684H44.0335V16.633H35.6629V8.25684ZM15.3393 29.1888H6.96875V20.8182H15.3393V29.1888ZM35.6629 33.3796H44.0335V41.7557H35.6629V33.3796Z" fill="#FF7A45"/>
</g>
</svg>
