<svg width="49" height="48" viewBox="0 0 49 48" fill="none" xmlns="http://www.w3.org/2000/svg">
<g id="RadiusSettingOutlined">
<path id="Vector" d="M18.2846 4.06808H15.2846C15.0489 4.06808 14.856 4.26094 14.856 4.49665V7.49665C14.856 7.73237 15.0489 7.92522 15.2846 7.92522H18.2846C18.5203 7.92522 18.7132 7.73237 18.7132 7.49665V4.49665C18.7132 4.26094 18.5203 4.06808 18.2846 4.06808ZM15.9275 40.7109H12.9275C12.6917 40.7109 12.4989 40.9038 12.4989 41.1395V44.1395C12.4989 44.3752 12.6917 44.5681 12.9275 44.5681H15.9275C16.1632 44.5681 16.356 44.3752 16.356 44.1395V41.1395C16.356 40.9038 16.1632 40.7109 15.9275 40.7109ZM43.9989 29.7824H40.9989C40.7632 29.7824 40.5703 29.9752 40.5703 30.2109V33.2109C40.5703 33.4467 40.7632 33.6395 40.9989 33.6395H43.9989C44.2346 33.6395 44.4275 33.4467 44.4275 33.2109V30.2109C44.4275 29.9752 44.2346 29.7824 43.9989 29.7824ZM7.35603 14.9967H4.35603C4.12031 14.9967 3.92746 15.1895 3.92746 15.4252V18.4252C3.92746 18.6609 4.12031 18.8538 4.35603 18.8538H7.35603C7.59174 18.8538 7.7846 18.6609 7.7846 18.4252V15.4252C7.7846 15.1895 7.59174 14.9967 7.35603 14.9967ZM7.35603 23.5681H4.35603C4.12031 23.5681 3.92746 23.7609 3.92746 23.9967V26.9967C3.92746 27.2324 4.12031 27.4252 4.35603 27.4252H7.35603C7.59174 27.4252 7.7846 27.2324 7.7846 26.9967V23.9967C7.7846 23.7609 7.59174 23.5681 7.35603 23.5681ZM7.35603 32.1395H4.35603C4.12031 32.1395 3.92746 32.3324 3.92746 32.5681V35.5681C3.92746 35.8038 4.12031 35.9967 4.35603 35.9967H7.35603C7.59174 35.9967 7.7846 35.8038 7.7846 35.5681V32.5681C7.7846 32.3324 7.59174 32.1395 7.35603 32.1395ZM7.35603 40.7109H4.35603C4.12031 40.7109 3.92746 40.9038 3.92746 41.1395V44.1395C3.92746 44.3752 4.12031 44.5681 4.35603 44.5681H7.35603C7.59174 44.5681 7.7846 44.3752 7.7846 44.1395V41.1395C7.7846 40.9038 7.59174 40.7109 7.35603 40.7109ZM24.4989 40.7109H21.4989C21.2632 40.7109 21.0703 40.9038 21.0703 41.1395V44.1395C21.0703 44.3752 21.2632 44.5681 21.4989 44.5681H24.4989C24.7346 44.5681 24.9275 44.3752 24.9275 44.1395V41.1395C24.9275 40.9038 24.7346 40.7109 24.4989 40.7109ZM33.0703 40.7109H30.0703C29.8346 40.7109 29.6417 40.9038 29.6417 41.1395V44.1395C29.6417 44.3752 29.8346 44.5681 30.0703 44.5681H33.0703C33.306 44.5681 33.4989 44.3752 33.4989 44.1395V41.1395C33.4989 40.9038 33.306 40.7109 33.0703 40.7109ZM40.5703 25.4967C40.5703 25.7324 40.7632 25.9252 40.9989 25.9252H43.9989C44.2346 25.9252 44.4275 25.7324 44.4275 25.4967V16.3895C44.4275 9.58594 38.9096 4.06808 32.106 4.06808H22.9989C22.7632 4.06808 22.5703 4.26094 22.5703 4.49665V7.49665C22.5703 7.73237 22.7632 7.92522 22.9989 7.92522H32.106C36.7828 7.92522 40.5703 11.7127 40.5703 16.3895V25.4967ZM9.71317 1.71094H1.99888C1.76317 1.71094 1.57031 1.90379 1.57031 2.13951V9.8538C1.57031 10.0895 1.76317 10.2824 1.99888 10.2824H9.71317C9.94888 10.2824 10.1417 10.0895 10.1417 9.8538V2.13951C10.1417 1.90379 9.94888 1.71094 9.71317 1.71094ZM7.14174 7.1538C7.14174 7.22344 7.08281 7.28237 7.01317 7.28237H4.69888C4.62924 7.28237 4.57031 7.22344 4.57031 7.1538V4.83951C4.57031 4.76987 4.62924 4.71094 4.69888 4.71094H7.01317C7.08281 4.71094 7.14174 4.76987 7.14174 4.83951V7.1538ZM46.356 38.3538H38.6417C38.406 38.3538 38.2132 38.5467 38.2132 38.7824V46.4967C38.2132 46.7324 38.406 46.9252 38.6417 46.9252H46.356C46.5917 46.9252 46.7846 46.7324 46.7846 46.4967V38.7824C46.7846 38.5467 46.5917 38.3538 46.356 38.3538ZM43.7846 43.7967C43.7846 43.8663 43.7257 43.9252 43.656 43.9252H41.3417C41.2721 43.9252 41.2132 43.8663 41.2132 43.7967V41.4824C41.2132 41.4127 41.2721 41.3538 41.3417 41.3538H43.656C43.7257 41.3538 43.7846 41.4127 43.7846 41.4824V43.7967Z" fill="#52C41A"/>
</g>
</svg>
