<svg width="20" height="21" viewBox="0 0 20 21" fill="none" xmlns="http://www.w3.org/2000/svg">
<g clip-path="url(#clip0_1470_2797)">
<path d="M10.7237 13.0587L8.60703 10.967L8.63203 10.942C10.082 9.32533 11.1154 7.46699 11.7237 5.50033H14.1654V3.83366H8.33203V2.16699H6.66536V3.83366H0.832031V5.49199H10.1404C9.58203 7.10033 8.6987 8.62533 7.4987 9.95866C6.7237 9.10033 6.08203 8.15866 5.5737 7.16699H3.90703C4.51536 8.52533 5.3487 9.80866 6.39037 10.967L2.1487 15.1503L3.33203 16.3337L7.4987 12.167L10.0904 14.7587L10.7237 13.0587ZM15.4154 8.83366H13.7487L9.9987 18.8337H11.6654L12.5987 16.3337H16.557L17.4987 18.8337H19.1654L15.4154 8.83366ZM13.232 14.667L14.582 11.0587L15.932 14.667H13.232Z" fill="#262626"/>
</g>
<defs>
<clipPath id="clip0_1470_2797">
<rect width="20" height="20" fill="white" transform="translate(-0.00195312 0.5)"/>
</clipPath>
</defs>
</svg>
