<svg width="52" height="27" viewBox="0 0 52 27" fill="none" xmlns="http://www.w3.org/2000/svg">
<path fill-rule="evenodd" clip-rule="evenodd" d="M29.4533 2.9088L30.3919 3.73736C31.5493 2.73018 32.8847 1.92864 34.3419 1.38017C37.1537 0.321888 40.2454 0.271295 43.0903 1.23701C45.9352 2.20272 48.3573 4.12499 49.9438 6.67628C51.5303 9.22758 52.1831 12.25 51.7909 15.2287C51.3988 18.2073 49.986 20.9578 47.7932 23.0116C45.6004 25.0653 42.7634 26.2952 39.7655 26.4917C36.7676 26.6882 33.7943 25.8391 31.3522 24.0892C29.6602 22.8767 28.2958 21.2838 27.3586 19.4545C26.6666 18.1037 27.5613 16.5762 29.0273 16.1834C30.4933 15.7906 31.9661 16.7109 32.8587 17.9385C33.3266 18.5819 33.8974 19.1514 34.5536 19.6216C35.9621 20.6309 37.677 21.1206 39.406 21.0073C41.1351 20.8939 42.7714 20.1846 44.036 19.0001C45.3007 17.8156 46.1156 16.2292 46.3417 14.5113C46.5679 12.7933 46.1914 11.0501 45.2764 9.57866C44.3614 8.10719 42.9644 6.99851 41.3236 6.44153C39.6828 5.88456 37.8997 5.91374 36.278 6.5241C35.6694 6.75315 35.0977 7.05871 34.5751 7.43042L35.224 8.00325C35.532 8.27513 35.3837 8.78281 34.9778 8.84616L29.0233 9.7755C28.7232 9.82233 28.4544 9.58501 28.4636 9.28143L28.6475 3.25765C28.66 2.84703 29.1454 2.63692 29.4533 2.9088ZM22.5544 17.5012C22.8545 17.4544 23.1233 17.6917 23.114 17.9953L22.9302 24.0191C22.9177 24.4297 22.4323 24.6398 22.1243 24.3679L21.2237 23.5728C20.3886 24.2581 19.4682 24.8391 18.482 25.2998C16.5347 26.2095 14.392 26.6217 12.2461 26.4993C10.1002 26.3769 8.01831 25.7237 6.18705 24.5984C5.13994 23.955 4.19351 23.1687 3.37331 22.2657C2.35284 21.1423 2.81796 19.4344 4.1307 18.6727C5.44345 17.9109 7.10538 18.4151 8.28734 19.3672C8.53381 19.5657 8.79332 19.749 9.06455 19.9157C10.1207 20.5647 11.3215 20.9414 12.5591 21.012C13.7968 21.0826 15.0326 20.8449 16.1557 20.3202C16.4441 20.1855 16.7228 20.0329 16.9903 19.8636L17.0089 19.8519L16.3536 19.2735C16.0457 19.0016 16.194 18.4939 16.5999 18.4306L22.5544 17.5012ZM23.5314 10.5854C22.4209 11.5013 22.2216 13.1262 23.0779 14.2832L23.14 14.3671C24.0486 15.5947 25.7923 15.828 26.9916 14.8824C28.1473 13.9712 28.3631 12.3035 27.4776 11.1281L27.4148 11.0448C26.4873 9.81376 24.7205 9.60476 23.5314 10.5854Z" fill="url(#paint0_linear_1470_2777)"/>
<path fill-rule="evenodd" clip-rule="evenodd" d="M29.4533 2.9088L30.3919 3.73736C31.5493 2.73018 32.8847 1.92864 34.3419 1.38017C37.1537 0.321888 40.2454 0.271295 43.0903 1.23701C45.9352 2.20272 48.3573 4.12499 49.9438 6.67628C51.5303 9.22758 52.1831 12.25 51.7909 15.2287C51.3988 18.2073 49.986 20.9578 47.7932 23.0116C45.6004 25.0653 42.7634 26.2952 39.7655 26.4917C36.7676 26.6882 33.7943 25.8391 31.3522 24.0892C29.6602 22.8767 28.2958 21.2838 27.3586 19.4545C26.6666 18.1037 27.5613 16.5762 29.0273 16.1834C30.4933 15.7906 31.9661 16.7109 32.8587 17.9385C33.3266 18.5819 33.8974 19.1514 34.5536 19.6216C35.9621 20.6309 37.677 21.1206 39.406 21.0073C41.1351 20.8939 42.7714 20.1846 44.036 19.0001C45.3007 17.8156 46.1156 16.2292 46.3417 14.5113C46.5679 12.7933 46.1914 11.0501 45.2764 9.57866C44.3614 8.10719 42.9644 6.99851 41.3236 6.44153C39.6828 5.88456 37.8997 5.91374 36.278 6.5241C35.6694 6.75315 35.0977 7.05871 34.5751 7.43042L35.224 8.00325C35.532 8.27513 35.3837 8.78281 34.9778 8.84616L29.0233 9.7755C28.7232 9.82233 28.4544 9.58501 28.4636 9.28143L28.6475 3.25765C28.66 2.84703 29.1454 2.63692 29.4533 2.9088ZM22.5544 17.5012C22.8545 17.4544 23.1233 17.6917 23.114 17.9953L22.9302 24.0191C22.9177 24.4297 22.4323 24.6398 22.1243 24.3679L21.2237 23.5728C20.3886 24.2581 19.4682 24.8391 18.482 25.2998C16.5347 26.2095 14.392 26.6217 12.2461 26.4993C10.1002 26.3769 8.01831 25.7237 6.18705 24.5984C5.13994 23.955 4.19351 23.1687 3.37331 22.2657C2.35284 21.1423 2.81796 19.4344 4.1307 18.6727C5.44345 17.9109 7.10538 18.4151 8.28734 19.3672C8.53381 19.5657 8.79332 19.749 9.06455 19.9157C10.1207 20.5647 11.3215 20.9414 12.5591 21.012C13.7968 21.0826 15.0326 20.8449 16.1557 20.3202C16.4441 20.1855 16.7228 20.0329 16.9903 19.8636L17.0089 19.8519L16.3536 19.2735C16.0457 19.0016 16.194 18.4939 16.5999 18.4306L22.5544 17.5012ZM23.5314 10.5854C22.4209 11.5013 22.2216 13.1262 23.0779 14.2832L23.14 14.3671C24.0486 15.5947 25.7923 15.828 26.9916 14.8824C28.1473 13.9712 28.3631 12.3035 27.4776 11.1281L27.4148 11.0448C26.4873 9.81376 24.7205 9.60476 23.5314 10.5854Z" fill="url(#paint1_linear_1470_2777)"/>
<circle cx="2.78917" cy="13.4542" r="2.78917" fill="url(#paint2_linear_1470_2777)"/>
<circle cx="5.69933" cy="6.17785" r="2.78917" fill="url(#paint3_linear_1470_2777)"/>
<circle cx="20.2521" cy="6.17785" r="2.78917" fill="url(#paint4_linear_1470_2777)"/>
<circle cx="12.9747" cy="3.26769" r="2.78917" fill="url(#paint5_linear_1470_2777)"/>
<defs>
<linearGradient id="paint0_linear_1470_2777" x1="-3.86679" y1="13.5763" x2="23.7569" y2="13.5763" gradientUnits="userSpaceOnUse">
<stop stop-color="#6D389F"/>
<stop offset="1" stop-color="#1890FF" stop-opacity="0.5"/>
</linearGradient>
<linearGradient id="paint1_linear_1470_2777" x1="50.8595" y1="12.1211" x2="24.7993" y2="12.1211" gradientUnits="userSpaceOnUse">
<stop stop-color="#005EFF"/>
<stop offset="1" stop-opacity="0"/>
</linearGradient>
<linearGradient id="paint2_linear_1470_2777" x1="2.91044" y1="16.4859" x2="2.91044" y2="5.8143" gradientUnits="userSpaceOnUse">
<stop stop-color="#6C4DAF"/>
<stop offset="1" stop-color="#6C4DAF" stop-opacity="0"/>
</linearGradient>
<linearGradient id="paint3_linear_1470_2777" x1="3.8803" y1="7.99687" x2="11.3989" y2="-2.18967" gradientUnits="userSpaceOnUse">
<stop stop-color="#6E73CB"/>
<stop offset="1" stop-color="#D9D9D9" stop-opacity="0"/>
</linearGradient>
<linearGradient id="paint4_linear_1470_2777" x1="18.433" y1="4.84389" x2="24.4965" y2="10.1797" gradientUnits="userSpaceOnUse">
<stop stop-color="#84BCF9"/>
<stop offset="1" stop-color="#84BCF9" stop-opacity="0"/>
</linearGradient>
<linearGradient id="paint5_linear_1470_2777" x1="10.4281" y1="2.41881" x2="21.5848" y2="3.14642" gradientUnits="userSpaceOnUse">
<stop stop-color="#769CE6"/>
<stop offset="1" stop-color="#769CE6" stop-opacity="0"/>
</linearGradient>
</defs>
</svg>
