<svg width="21" height="17" viewBox="0 0 21 17" fill="none" xmlns="http://www.w3.org/2000/svg">
<path d="M17.787 1.84003C16.4098 1.2058 14.9528 0.755152 13.4546 0.5C13.268 0.83208 13.0499 1.27873 12.8996 1.63406C11.2842 1.39499 9.68371 1.39499 8.09805 1.63406C7.94777 1.27881 7.72481 0.83208 7.53646 0.5C6.03676 0.755269 4.57855 1.20706 3.2007 1.84334C0.458893 5.92139 -0.284392 9.89804 0.0872091 13.8184C1.90576 15.155 3.66812 15.967 5.40078 16.4984C5.83139 15.9155 6.21204 15.2985 6.5388 14.6536C5.9167 14.4205 5.31697 14.1332 4.74675 13.7952C4.89681 13.6857 5.04333 13.5716 5.18611 13.4531C8.64143 15.0438 12.3958 15.0438 15.81 13.4531C15.9534 13.5708 16.0998 13.6849 16.2492 13.7952C15.6781 14.1341 15.0773 14.4219 14.4539 14.6553C14.7825 15.3028 15.1625 15.9205 15.5919 16.5C17.3262 15.9687 19.0902 15.1567 20.9088 13.8184C21.3449 9.27376 20.1639 5.33361 17.787 1.84003ZM7.00958 11.4075C5.97229 11.4075 5.12163 10.4543 5.12163 9.29371C5.12163 8.13308 5.95416 7.17834 7.00958 7.17834C8.06507 7.17834 8.91566 8.13138 8.89753 9.29371C8.89917 10.4543 8.06507 11.4075 7.00958 11.4075ZM13.9864 11.4075C12.9491 11.4075 12.0985 10.4543 12.0985 9.29371C12.0985 8.13308 12.931 7.17834 13.9864 7.17834C15.0419 7.17834 15.8925 8.13138 15.8744 9.29371C15.8744 10.4543 15.0419 11.4075 13.9864 11.4075Z" fill="#5865F2"/>
</svg>
