<svg width="20" height="21" viewBox="0 0 20 21" fill="none" xmlns="http://www.w3.org/2000/svg">
<path d="M9.99805 3C5.85547 3 2.49805 6.35742 2.49805 10.5V17.5312C2.49805 17.791 2.70703 18 2.9668 18H6.56055C7.25 18 7.81055 17.4395 7.81055 16.75V12.6875C7.81055 11.998 7.25 11.4375 6.56055 11.4375H3.9043V10.5C3.9043 7.13477 6.63281 4.40625 9.99805 4.40625C13.3633 4.40625 16.0918 7.13477 16.0918 10.5V11.4375H13.4355C12.7461 11.4375 12.1855 11.998 12.1855 12.6875V16.75C12.1855 17.4395 12.7461 18 13.4355 18H17.0293C17.2891 18 17.498 17.791 17.498 17.5312V10.5C17.498 6.35742 14.1406 3 9.99805 3Z" fill="#262626"/>
</svg>
