<svg width="25" height="24" viewBox="0 0 25 24" fill="none" xmlns="http://www.w3.org/2000/svg">
<g id="Google">
<path id="vector" d="M23.0005 12.2326C23.0005 11.3693 22.9291 10.7393 22.7744 10.0859H12.7148V13.9826H18.6196C18.5006 14.9509 17.8577 16.4093 16.4291 17.3892L16.4091 17.5197L19.5897 19.9344L19.8101 19.9559C21.8338 18.1242 23.0005 15.4292 23.0005 12.2326Z" fill="#4285F4"/>
<path id="vector_2" d="M12.714 22.4996C15.6068 22.4996 18.0353 21.5662 19.8092 19.9562L16.4282 17.3895C15.5235 18.0078 14.3092 18.4395 12.714 18.4395C9.88069 18.4395 7.47596 16.6079 6.61874 14.0762L6.49309 14.0866L3.18583 16.595L3.14258 16.7128C4.90446 20.1428 8.5235 22.4996 12.714 22.4996Z" fill="#34A853"/>
<path id="vector_3" d="M6.62095 14.0775C6.39476 13.4241 6.26386 12.7241 6.26386 12.0008C6.26386 11.2774 6.39476 10.5774 6.60905 9.9241L6.60306 9.78496L3.25435 7.23633L3.14478 7.2874C2.41862 8.71075 2.00195 10.3091 2.00195 12.0008C2.00195 13.6924 2.41862 15.2907 3.14478 16.7141L6.62095 14.0775Z" fill="#FBBC05"/>
<path id="vector_4" d="M12.7141 5.55997C14.7259 5.55997 16.083 6.41163 16.8569 7.12335L19.8807 4.23C18.0236 2.53834 15.6069 1.5 12.7141 1.5C8.52353 1.5 4.90447 3.85665 3.14258 7.28662L6.60686 9.92332C7.47598 7.39166 9.88073 5.55997 12.7141 5.55997Z" fill="#EB4335"/>
</g>
</svg>
