<svg width="69" height="38" viewBox="0 0 69 38" fill="none" xmlns="http://www.w3.org/2000/svg">
<g filter="url(#filter0_d_761_10152)">
<path fill-rule="evenodd" clip-rule="evenodd" d="M37.4079 3.7254L37.8903 4.15122C39.2953 2.92848 40.9164 1.95539 42.6854 1.28957C46.0984 0.00501955 49.8512 -0.0563909 53.3043 1.1158C56.7575 2.288 59.6974 4.62127 61.6231 7.71805C63.5488 10.8148 64.3412 14.4835 63.8652 18.099C63.3892 21.7145 61.6743 25.0531 59.0127 27.546C56.3511 30.0389 52.9075 31.5317 49.2686 31.7702C45.6297 32.0087 42.0207 30.9781 39.0565 28.854C37.0027 27.3823 35.3466 25.4488 34.209 23.2283C33.369 21.5887 34.455 19.7347 36.2345 19.2579C38.0139 18.7811 39.8017 19.8982 40.8851 21.3882C41.453 22.1692 42.1459 22.8604 42.9424 23.4312C44.652 24.6563 46.7335 25.2507 48.8323 25.1132C50.931 24.9756 52.9171 24.1146 54.4522 22.6768C55.9873 21.2391 56.9764 19.3135 57.2509 17.2282C57.5254 15.143 57.0684 13.0271 55.9578 11.241C54.8471 9.4549 53.1515 8.10918 51.1599 7.43311C49.1683 6.75704 47.0038 6.79246 45.0354 7.53333C44.2965 7.81143 43.6024 8.18248 42.9679 8.63384L43.0995 8.75003C43.7344 9.31052 43.4287 10.3571 42.5919 10.4877L36.719 11.4043C36.1004 11.5009 35.5462 11.0116 35.5653 10.3858L35.7466 4.44456C35.7724 3.59806 36.773 3.16491 37.4079 3.7254ZM27.8869 20.9327C28.5055 20.8361 29.0597 21.3254 29.0406 21.9512L28.8593 27.8925C28.8335 28.739 27.8329 29.1721 27.198 28.6116L26.7615 28.2263C25.7479 29.058 24.6306 29.7633 23.4336 30.3225C21.0699 31.4267 18.4691 31.927 15.8644 31.7784C13.2597 31.6298 10.7327 30.8371 8.50986 29.4712C7.23886 28.6902 6.09007 27.7358 5.0945 26.6397C3.85584 25.2761 4.42041 23.203 6.01383 22.2784C7.60726 21.3538 9.62453 21.9658 11.0592 23.1214C11.3584 23.3624 11.6734 23.5849 12.0026 23.7872C13.2846 24.575 14.7421 25.0322 16.2443 25.1179C17.7466 25.2036 19.2466 24.9151 20.6099 24.2782C20.96 24.1146 21.2983 23.9294 21.6229 23.724L21.6455 23.7098L21.5064 23.587C20.8715 23.0265 21.1772 21.9799 22.014 21.8493L27.8869 20.9327ZM29.5624 12.4638C28.2144 13.5755 27.9725 15.5478 29.012 16.9523L29.0873 17.0541C30.1901 18.5442 32.3067 18.8273 33.7624 17.6795C35.1652 16.5735 35.4272 14.5493 34.3523 13.1226L34.276 13.0214C33.1503 11.5272 31.0057 11.2735 29.5624 12.4638Z" fill="url(#paint0_linear_761_10152)"/>
<path fill-rule="evenodd" clip-rule="evenodd" d="M37.4079 3.7254L37.8903 4.15122C39.2953 2.92848 40.9164 1.95539 42.6854 1.28957C46.0984 0.00501955 49.8512 -0.0563909 53.3043 1.1158C56.7575 2.288 59.6974 4.62127 61.6231 7.71805C63.5488 10.8148 64.3412 14.4835 63.8652 18.099C63.3892 21.7145 61.6743 25.0531 59.0127 27.546C56.3511 30.0389 52.9075 31.5317 49.2686 31.7702C45.6297 32.0087 42.0207 30.9781 39.0565 28.854C37.0027 27.3823 35.3466 25.4488 34.209 23.2283C33.369 21.5887 34.455 19.7347 36.2345 19.2579C38.0139 18.7811 39.8017 19.8982 40.8851 21.3882C41.453 22.1692 42.1459 22.8604 42.9424 23.4312C44.652 24.6563 46.7335 25.2507 48.8323 25.1132C50.931 24.9756 52.9171 24.1146 54.4522 22.6768C55.9873 21.2391 56.9764 19.3135 57.2509 17.2282C57.5254 15.143 57.0684 13.0271 55.9578 11.241C54.8471 9.4549 53.1515 8.10918 51.1599 7.43311C49.1683 6.75704 47.0038 6.79246 45.0354 7.53333C44.2965 7.81143 43.6024 8.18248 42.9679 8.63384L43.0995 8.75003C43.7344 9.31052 43.4287 10.3571 42.5919 10.4877L36.719 11.4043C36.1004 11.5009 35.5462 11.0116 35.5653 10.3858L35.7466 4.44456C35.7724 3.59806 36.773 3.16491 37.4079 3.7254ZM27.8869 20.9327C28.5055 20.8361 29.0597 21.3254 29.0406 21.9512L28.8593 27.8925C28.8335 28.739 27.8329 29.1721 27.198 28.6116L26.7615 28.2263C25.7479 29.058 24.6306 29.7633 23.4336 30.3225C21.0699 31.4267 18.4691 31.927 15.8644 31.7784C13.2597 31.6298 10.7327 30.8371 8.50986 29.4712C7.23886 28.6902 6.09007 27.7358 5.0945 26.6397C3.85584 25.2761 4.42041 23.203 6.01383 22.2784C7.60726 21.3538 9.62453 21.9658 11.0592 23.1214C11.3584 23.3624 11.6734 23.5849 12.0026 23.7872C13.2846 24.575 14.7421 25.0322 16.2443 25.1179C17.7466 25.2036 19.2466 24.9151 20.6099 24.2782C20.96 24.1146 21.2983 23.9294 21.6229 23.724L21.6455 23.7098L21.5064 23.587C20.8715 23.0265 21.1772 21.9799 22.014 21.8493L27.8869 20.9327ZM29.5624 12.4638C28.2144 13.5755 27.9725 15.5478 29.012 16.9523L29.0873 17.0541C30.1901 18.5442 32.3067 18.8273 33.7624 17.6795C35.1652 16.5735 35.4272 14.5493 34.3523 13.1226L34.276 13.0214C33.1503 11.5272 31.0057 11.2735 29.5624 12.4638Z" fill="url(#paint1_linear_761_10152)"/>
<circle cx="4.38553" cy="15.9451" r="3.38553" fill="url(#paint2_linear_761_10152)"/>
<circle cx="7.91775" cy="7.11404" r="3.38553" fill="url(#paint3_linear_761_10152)"/>
<circle cx="25.5818" cy="7.11404" r="3.38553" fill="url(#paint4_linear_761_10152)"/>
<circle cx="16.7498" cy="3.58084" r="3.38553" fill="url(#paint5_linear_761_10152)"/>
</g>
<defs>
<filter id="filter0_d_761_10152" x="0" y="0.195312" width="69" height="37.6084" filterUnits="userSpaceOnUse" color-interpolation-filters="sRGB">
<feFlood flood-opacity="0" result="BackgroundImageFix"/>
<feColorMatrix in="SourceAlpha" type="matrix" values="0 0 0 0 0 0 0 0 0 0 0 0 0 0 0 0 0 0 127 0" result="hardAlpha"/>
<feOffset dx="2" dy="3"/>
<feGaussianBlur stdDeviation="1.5"/>
<feComposite in2="hardAlpha" operator="out"/>
<feColorMatrix type="matrix" values="0 0 0 0 1 0 0 0 0 1 0 0 0 0 1 0 0 0 0.8 0"/>
<feBlend mode="normal" in2="BackgroundImageFix" result="effect1_dropShadow_761_10152"/>
<feBlend mode="normal" in="SourceGraphic" in2="effect1_dropShadow_761_10152" result="shape"/>
</filter>
<linearGradient id="paint0_linear_761_10152" x1="-3.69372" y1="16.0929" x2="29.8367" y2="16.0929" gradientUnits="userSpaceOnUse">
<stop stop-color="#6D389F"/>
<stop offset="1" stop-color="#1890FF" stop-opacity="0.5"/>
</linearGradient>
<linearGradient id="paint1_linear_761_10152" x1="62.7345" y1="14.3265" x2="31.102" y2="14.3265" gradientUnits="userSpaceOnUse">
<stop stop-color="#005EFF"/>
<stop offset="1" stop-opacity="0"/>
</linearGradient>
<linearGradient id="paint2_linear_761_10152" x1="4.53272" y1="19.625" x2="4.53272" y2="6.6717" gradientUnits="userSpaceOnUse">
<stop stop-color="#6C4DAF"/>
<stop offset="1" stop-color="#6C4DAF" stop-opacity="0"/>
</linearGradient>
<linearGradient id="paint3_linear_761_10152" x1="5.7098" y1="9.322" x2="14.836" y2="-3.04254" gradientUnits="userSpaceOnUse">
<stop stop-color="#6E73CB"/>
<stop offset="1" stop-color="#D9D9D9" stop-opacity="0"/>
</linearGradient>
<linearGradient id="paint4_linear_761_10152" x1="23.3739" y1="5.49488" x2="30.7337" y2="11.9715" gradientUnits="userSpaceOnUse">
<stop stop-color="#84BCF9"/>
<stop offset="1" stop-color="#84BCF9" stop-opacity="0"/>
</linearGradient>
<linearGradient id="paint5_linear_761_10152" x1="13.6587" y1="2.55046" x2="27.2008" y2="3.43364" gradientUnits="userSpaceOnUse">
<stop stop-color="#769CE6"/>
<stop offset="1" stop-color="#769CE6" stop-opacity="0"/>
</linearGradient>
</defs>
</svg>

