<svg width="9" height="11" viewBox="0 0 9 11" fill="none" xmlns="http://www.w3.org/2000/svg">
<g id="menu-icon/ant-menu-submenu-arrow-up" clip-path="url(#clip0_1451_87412)">
<path id="Union" fill-rule="evenodd" clip-rule="evenodd" d="M5.15062 9.03523C5.54114 9.42576 6.17431 9.42576 6.56483 9.03523C6.95536 8.64471 6.95536 8.01154 6.56483 7.62102L4.44354 5.49972L6.56486 3.3784C6.95538 2.98788 6.95538 2.35471 6.56486 1.96419C6.17433 1.57367 5.54117 1.57367 5.15064 1.96419L2.32832 4.78651C2.32627 4.78853 2.32423 4.79055 2.32219 4.79259C1.93777 5.17701 1.93176 5.79655 2.30417 6.18832C2.31008 6.19454 2.31609 6.2007 2.32219 6.2068C2.3222 6.20681 2.32221 6.20682 2.32222 6.20683C2.32229 6.2069 2.32235 6.20697 2.32242 6.20704L5.15062 9.03523Z" fill="#8C8C8C"/>
</g>
<defs>
<clipPath id="clip0_1451_87412">
<rect width="10" height="9" fill="white" transform="matrix(0 -1 1 0 0 10.5)"/>
</clipPath>
</defs>
</svg>
