<svg width="14" height="14" viewBox="0 0 14 14" fill="none" xmlns="http://www.w3.org/2000/svg">
<g id="star">
<path id="Vector" d="M12.4161 4.82735L8.94482 4.32286L7.39306 1.17696C7.35068 1.09083 7.28096 1.0211 7.19482 0.978716C6.97881 0.872075 6.71631 0.960943 6.6083 1.17696L5.05654 4.32286L1.58525 4.82735C1.48955 4.84102 1.40205 4.88614 1.33506 4.9545C1.25407 5.03774 1.20944 5.14973 1.21098 5.26586C1.21251 5.38199 1.26009 5.49276 1.34326 5.57383L3.85478 8.02247L3.26142 11.4801C3.24751 11.5605 3.25641 11.6432 3.28712 11.7189C3.31782 11.7945 3.36911 11.86 3.43515 11.908C3.5012 11.9559 3.57936 11.9844 3.66078 11.9903C3.7422 11.9961 3.82362 11.9789 3.8958 11.9408L7.00068 10.3084L10.1056 11.9408C10.1903 11.9859 10.2888 12.001 10.3831 11.9846C10.621 11.9436 10.781 11.718 10.7399 11.4801L10.1466 8.02247L12.6581 5.57383C12.7265 5.50684 12.7716 5.41934 12.7853 5.32364C12.8222 5.08438 12.6554 4.8629 12.4161 4.82735V4.82735Z" fill="#1890FF"/>
</g>
</svg>
