<svg width="14" height="14" viewBox="0 0 14 14" fill="none" xmlns="http://www.w3.org/2000/svg">
<path d="M13.1887 4.51836L9.22154 3.9418L7.4481 0.34649C7.39966 0.248053 7.31998 0.168365 7.22154 0.119928C6.97466 -0.00194734 6.67466 0.0996152 6.55123 0.34649L4.77779 3.9418L0.810601 4.51836C0.701226 4.53399 0.601226 4.58555 0.524663 4.66368C0.432103 4.75881 0.381099 4.8868 0.382856 5.01952C0.384614 5.15225 0.438991 5.27884 0.534038 5.37149L3.40435 8.16993L2.72623 12.1215C2.71032 12.2134 2.7205 12.308 2.75559 12.3944C2.79068 12.4808 2.84929 12.5557 2.92477 12.6105C3.00025 12.6653 3.08958 12.6979 3.18263 12.7045C3.27568 12.7112 3.36873 12.6916 3.45123 12.6481L6.99966 10.7824L10.5481 12.6481C10.645 12.6996 10.7575 12.7168 10.8653 12.6981C11.1372 12.6512 11.32 12.3934 11.2731 12.1215L10.595 8.16993L13.4653 5.37149C13.5434 5.29493 13.595 5.19493 13.6106 5.08555C13.6528 4.81211 13.4622 4.55899 13.1887 4.51836ZM9.38716 7.77618L9.95123 11.0621L6.99966 9.51211L4.0481 11.0637L4.61216 7.77774L2.22466 5.44962L5.52466 4.96993L6.99966 1.98087L8.47466 4.96993L11.7747 5.44962L9.38716 7.77618Z" fill="#262626"/>
</svg>
