<svg width="16" height="17" viewBox="0 0 16 17" fill="none" xmlns="http://www.w3.org/2000/svg">
<path d="M14.7868 13.141H13.3582V11.7125C13.3582 11.6339 13.2939 11.5696 13.2153 11.5696H12.3582C12.2796 11.5696 12.2153 11.6339 12.2153 11.7125V13.141H10.7868C10.7082 13.141 10.6439 13.2053 10.6439 13.2839V14.141C10.6439 14.2196 10.7082 14.2839 10.7868 14.2839H12.2153V15.7125C12.2153 15.791 12.2796 15.8553 12.3582 15.8553H13.2153C13.2939 15.8553 13.3582 15.791 13.3582 15.7125V14.2839H14.7868C14.8653 14.2839 14.9296 14.2196 14.9296 14.141V13.2839C14.9296 13.2053 14.8653 13.141 14.7868 13.141ZM5.52784 8.25533C5.51176 8.09997 5.50284 7.94283 5.50284 7.7839C5.50284 7.49997 5.52962 7.22319 5.57962 6.95354C5.59212 6.88926 5.55819 6.82319 5.49926 6.7964C5.25641 6.68747 5.03319 6.53747 4.84034 6.34819C4.61309 6.12784 4.43426 5.86255 4.31527 5.56923C4.19628 5.27591 4.13975 4.96101 4.14926 4.64462C4.16533 4.0714 4.39569 3.52676 4.79748 3.11604C5.23855 2.66426 5.83141 2.41783 6.46176 2.42497C7.03141 2.43033 7.58141 2.64997 7.99748 3.03926C8.13855 3.1714 8.25998 3.31783 8.36176 3.47497C8.39748 3.53033 8.46712 3.55354 8.52784 3.53212C8.84212 3.42319 9.17426 3.3464 9.51534 3.31069C9.61534 3.29997 9.67248 3.19283 9.62784 3.10354C9.04748 1.95533 7.86176 1.16247 6.49034 1.14104C4.51176 1.11069 2.86176 2.7339 2.86176 4.71247C2.86176 5.8339 3.37784 6.8339 4.18676 7.48926C3.61891 7.75176 3.09569 8.11426 2.64212 8.56783C1.66355 9.54462 1.10998 10.8339 1.07426 12.2107C1.07379 12.2297 1.07713 12.2487 1.0841 12.2665C1.09106 12.2842 1.10151 12.3004 1.11482 12.314C1.12813 12.3277 1.14404 12.3385 1.16161 12.3459C1.17918 12.3533 1.19806 12.3571 1.21712 12.3571H2.21891C2.29569 12.3571 2.35998 12.2964 2.36176 12.2196C2.39569 11.1839 2.81533 10.2143 3.55283 9.47855C4.07784 8.95355 4.72069 8.58926 5.42248 8.41247C5.49034 8.39283 5.53676 8.32676 5.52784 8.25533ZM13.5725 7.7839C13.5725 5.83033 12.0028 4.24283 10.0564 4.21247C8.07784 4.18212 6.42962 5.80533 6.42962 7.7839C6.42962 8.90533 6.94748 9.90533 7.75462 10.5607C7.18088 10.8266 6.65859 11.1918 6.21176 11.6393C5.23319 12.616 4.67962 13.9053 4.64391 15.2803C4.64343 15.2994 4.64677 15.3183 4.65374 15.3361C4.6607 15.3538 4.67115 15.37 4.68446 15.3837C4.69778 15.3973 4.71369 15.4082 4.73126 15.4156C4.74883 15.423 4.7677 15.4268 4.78676 15.4268H5.78676C5.86355 15.4268 5.92784 15.366 5.92962 15.2893C5.96355 14.2535 6.38319 13.2839 7.12069 12.5482C7.89034 11.7785 8.91176 11.3553 10.001 11.3553C11.9725 11.3553 13.5725 9.75712 13.5725 7.7839ZM11.6171 9.39997C11.185 9.83212 10.6118 10.0696 10.001 10.0696C9.39034 10.0696 8.81712 9.83212 8.38498 9.39997C8.16933 9.18545 7.99894 8.92982 7.88392 8.64824C7.76889 8.36665 7.71156 8.06484 7.71534 7.76069C7.72069 7.17497 7.95462 6.6089 8.36355 6.18926C8.79212 5.74997 9.36534 5.50533 9.97784 5.49819C10.5832 5.49283 11.1707 5.72854 11.6028 6.15176C12.0457 6.58569 12.2886 7.16604 12.2886 7.7839C12.2868 8.39462 12.0493 8.96783 11.6171 9.39997Z" fill="#262626"/>
</svg>
