<svg width="36" height="36" viewBox="0 0 36 36" fill="none" xmlns="http://www.w3.org/2000/svg">
<g id="FilePdf" clip-path="url(#clip0_1263_71597)">
<path id="Vector" d="M18.7738 20.5071L18.7858 20.4509C19.0189 19.4906 19.3122 18.2933 19.0831 17.2085C18.9305 16.3527 18.2997 16.0192 17.7613 15.9951C17.1265 15.967 16.5599 16.3286 16.4193 16.8549C16.1541 17.8192 16.3912 19.1371 16.8251 20.8165C16.2787 22.1183 15.4068 24.0107 14.768 25.1357C13.5787 25.7504 11.9836 26.6987 11.7465 27.896C11.6983 28.117 11.7546 28.3982 11.8872 28.6513C12.0358 28.9326 12.2729 29.1496 12.5501 29.254C12.6706 29.2982 12.8153 29.3344 12.984 29.3344C13.6912 29.3344 14.8363 28.7638 16.3631 26.1442C16.5961 26.0679 16.8372 25.9875 17.0702 25.9071C18.1631 25.5375 19.2961 25.1518 20.3206 24.979C21.4537 25.5857 22.7434 25.9754 23.6193 25.9754C24.4872 25.9754 24.8287 25.4612 24.9573 25.1518C25.1823 24.6094 25.0738 23.9263 24.7081 23.5607C24.1778 23.0384 22.8881 22.9018 20.8791 23.1509C19.8907 22.5482 19.2439 21.7286 18.7738 20.5071ZM14.3662 26.6103C13.8077 27.4219 13.3858 27.8277 13.1568 28.0045C13.426 27.5103 13.9523 26.9879 14.3662 26.6103ZM17.8858 17.1482C18.0948 17.5058 18.0666 18.5866 17.9059 19.133C17.709 18.3335 17.6809 17.2004 17.7974 17.0679C17.8296 17.0719 17.8577 17.096 17.8858 17.1482ZM17.8215 21.9897C18.2515 22.733 18.7939 23.3719 19.3925 23.846C18.5247 24.0429 17.7331 24.3683 17.026 24.6576C16.8573 24.7259 16.6925 24.7942 16.5318 24.8585C17.0662 23.8902 17.5122 22.7933 17.8215 21.9897ZM24.0733 24.6214C24.0773 24.6295 24.0814 24.6415 24.0573 24.6576H24.0492L24.0412 24.6696C24.009 24.6897 23.6796 24.8826 22.2613 24.3241C23.8925 24.2478 24.0693 24.6174 24.0733 24.6214ZM31.7635 9.02411L23.1171 0.377679C22.876 0.136607 22.5506 0 22.209 0H5.14118C4.43002 0 3.85547 0.574554 3.85547 1.28571V34.7143C3.85547 35.4254 4.43002 36 5.14118 36H30.8555C31.5666 36 32.1412 35.4254 32.1412 34.7143V9.93616C32.1412 9.59464 32.0046 9.26518 31.7635 9.02411ZM29.176 10.5268H21.6144V2.96518L29.176 10.5268ZM29.2483 33.1071H6.74833V2.89286H18.8823V11.5714C18.8823 12.019 19.06 12.4482 19.3765 12.7647C19.693 13.0811 20.1222 13.2589 20.5698 13.2589H29.2483V33.1071Z" fill="#1890FF"/>
</g>
<defs>
<clipPath id="clip0_1263_71597">
<rect width="36" height="36" fill="white"/>
</clipPath>
</defs>
</svg>
